<?xml version="1.0" encoding="UTF-8"?>
<!-- Generated by Pixelmator Pro 3.3.8 -->
<svg width="3363" height="1290" viewBox="0 0 3363 1290" xmlns="http://www.w3.org/2000/svg">
    <g id="g1-">
        <path id="path1" fill="#89f94f" fill-rule="evenodd" stroke="none" d="M 1 1289.741699 L 3361 1289.741699 L 3361 1.258301 L 1 1.258301 Z"/>
        <path id="MOVIE-DATABASE" fill="#000000" fill-rule="evenodd" stroke="none" d="M 2621.759766 1041.976929 C 2606.911377 1041.976929 2592.129883 1041.446289 2577.413818 1040.385498 C 2562.697266 1039.324829 2548.578369 1037.469727 2535.055664 1034.818359 C 2521.532715 1032.166748 2508.804443 1028.454102 2496.872803 1023.681274 C 2484.940674 1018.908447 2474.467529 1012.809814 2465.452148 1005.385559 C 2456.436768 997.961304 2449.078613 989.013062 2443.377441 978.539429 C 2437.676758 968.065918 2434.296387 955.801636 2433.235596 941.748413 L 2563.293457 941.748413 C 2563.293457 951.824341 2568.068115 959.381287 2577.613281 964.419189 C 2587.15918 969.457031 2598.825439 971.976929 2612.613281 971.976929 C 2620.038086 971.976929 2627.063721 971.711609 2633.692627 971.181274 C 2640.321533 970.650879 2645.956299 969.65625 2650.59668 968.198059 C 2655.236572 966.739624 2658.684082 964.75061 2660.937988 962.231689 C 2663.19165 959.712769 2663.786865 956.46637 2662.726318 952.489014 C 2661.930908 949.307251 2658.019775 946.787354 2650.993164 944.931274 C 2643.966553 943.075195 2635.018311 941.418579 2624.146973 939.960144 C 2613.275635 938.501953 2601.078369 936.97644 2587.555664 935.385559 C 2574.032471 933.794495 2560.312988 931.805542 2546.392334 929.419189 C 2532.47168 927.032715 2518.947754 923.984802 2505.822266 920.272644 C 2492.697021 916.560547 2481.031006 911.786133 2470.822266 905.952759 C 2460.61377 900.119385 2452.593506 892.894897 2446.759766 884.277344 C 2440.926758 875.659851 2438.275146 865.253418 2438.805664 853.056274 C 2439.335938 840.063721 2442.64917 828.727051 2448.747803 819.048828 C 2454.846436 809.370667 2464.590576 801.350098 2477.980957 794.986328 C 2491.371338 788.62262 2508.937744 783.915344 2530.680664 780.866089 C 2552.42334 777.816772 2579.337158 776.291443 2611.421143 776.291443 C 2637.936523 776.291443 2662.129883 777.551453 2684.005127 780.070374 C 2705.880615 782.589294 2724.841064 787.29657 2740.882813 794.190674 C 2756.924561 801.084595 2769.650146 810.761963 2779.062988 823.224243 C 2788.476074 835.686584 2794.11084 851.727844 2795.966797 871.349243 L 2665.90918 871.349243 C 2664.052979 864.189941 2661.401855 858.820679 2657.954834 855.241089 C 2654.508057 851.661438 2650.465332 849.144348 2645.824951 847.685913 C 2641.184814 846.227783 2635.81543 845.431396 2629.716797 845.298828 C 2623.618408 845.166382 2616.989014 845.099243 2609.829834 845.099243 C 2596.572021 845.099243 2586.296875 846.02948 2579.005127 847.885559 C 2571.713379 849.741638 2568.4646 853.982422 2569.259766 860.611328 C 2569.790283 865.384216 2573.436035 868.96283 2580.197266 871.349243 C 2586.95874 873.735718 2595.644287 875.459229 2606.250488 876.519958 C 2616.856934 877.580688 2628.919922 878.510864 2642.442627 879.306274 C 2655.965576 880.101624 2669.755127 881.294495 2683.80835 882.885559 C 2697.861816 884.47644 2711.581299 886.929443 2724.97168 890.243774 C 2738.361816 893.558228 2750.229248 898.396851 2760.570313 904.760559 C 2770.911377 911.124268 2779.261963 919.410156 2785.625488 929.618774 C 2791.989258 939.827271 2795.171143 952.619507 2795.171143 967.998413 C 2795.171143 980.460754 2792.254395 990.934204 2786.421143 999.419189 C 2780.587646 1007.904175 2772.83252 1014.865845 2763.154297 1020.301514 C 2753.476074 1025.737305 2742.472168 1029.978027 2730.142334 1033.027344 C 2717.812744 1036.07666 2705.21875 1038.26416 2692.358643 1039.589844 C 2679.498779 1040.915527 2666.905029 1041.644897 2654.574951 1041.777344 C 2642.245361 1041.909912 2631.305664 1041.976929 2621.759766 1041.976929 Z M 205.146881 1038.397705 L 205.146881 780.269958 L 425.091797 780.269958 C 457.440765 780.269958 485.016907 783.519043 507.820282 790.015259 C 530.623657 796.511719 549.184692 805.526672 563.503113 817.060913 C 577.821472 828.595215 588.227905 842.25061 594.724182 858.027344 C 601.22052 873.804138 604.469482 890.971191 604.469482 909.532104 C 604.469482 928.092896 600.888062 945.195557 593.728882 960.839844 C 586.569702 976.483948 575.434082 990.072388 560.320313 1001.606689 C 545.206482 1013.14093 525.983337 1022.156128 502.649597 1028.652344 C 479.315948 1035.148804 451.474365 1038.397705 419.125397 1038.397705 L 205.146881 1038.397705 Z M 1060.267822 1038.397705 L 1060.267822 862.599243 L 948.109253 862.599243 L 948.109253 780.269958 L 1299.304199 780.269958 L 1299.304199 862.599243 L 1187.14563 862.599243 L 1187.14563 1038.397705 L 1060.267822 1038.397705 Z M 1676.355225 1038.397705 L 1676.355225 780.269958 L 1876.80957 780.269958 C 1894.309937 780.269958 1911.677856 781.529907 1928.913086 784.048828 C 1946.148193 786.567749 1961.594238 790.808594 1975.249756 796.774658 C 1988.905273 802.740723 1999.909424 810.696899 2008.261841 820.640259 C 2016.614136 830.583496 2020.525391 843.110352 2019.995117 858.224243 C 2019.464722 874.929077 2011.377075 887.790894 1995.73291 896.806274 C 1980.088745 905.821594 1957.418335 910.327759 1927.720825 910.327759 C 1943.895264 911.123291 1958.810669 912.514587 1972.466187 914.503174 C 1986.121704 916.491699 1997.852173 919.740784 2007.663086 924.248413 C 2017.473755 928.756104 2025.164795 934.787598 2030.73291 942.344604 C 2036.301147 949.901489 2039.086426 959.64563 2039.086426 971.577759 C 2039.086426 985.630981 2034.577637 997.03479 2025.562256 1005.78479 C 2016.546875 1014.534912 2004.813721 1021.295532 1990.362671 1026.068359 C 1975.911743 1030.841187 1959.605225 1034.090088 1941.442017 1035.813721 C 1923.278809 1037.537231 1905.050171 1038.397705 1886.754517 1038.397705 L 1676.355225 1038.397705 Z M 2825.399658 1038.397705 L 2825.399658 780.269958 L 3132.847168 780.269958 L 3132.847168 849.474243 L 2953.070313 849.474243 L 2953.070313 880.498413 L 3119.722168 880.498413 L 3119.722168 938.169189 L 2953.070313 938.169189 L 2953.070313 969.193359 L 3132.447998 969.193359 L 3132.447998 1038.397705 L 2825.399658 1038.397705 Z M 580.207397 1038.001221 L 707.878113 780.269958 L 868.560852 780.269958 L 991.460083 1038.001221 L 861.005798 1038.001221 L 845.892883 999.818359 L 726.969482 999.818359 L 710.265198 1038.001221 L 580.207397 1038.001221 Z M 1246.407715 1038.001221 L 1374.078369 780.269958 L 1534.76123 780.269958 L 1657.6604 1038.001221 L 1527.206055 1038.001221 L 1512.090454 999.818359 L 1393.1698 999.818359 L 1376.465454 1038.001221 L 1246.407715 1038.001221 Z M 2034.312256 1038.001221 L 2161.98291 780.269958 L 2322.668457 780.269958 L 2445.567627 1038.001221 L 2315.110596 1038.001221 L 2299.997803 999.818359 L 2181.074463 999.818359 L 2164.370117 1038.001221 L 2034.312256 1038.001221 Z M 1804.026001 973.964844 L 1868.855225 973.964844 C 1880.787354 973.964844 1890.930908 972.704895 1899.283325 970.185913 C 1907.635742 967.666992 1911.812256 963.624512 1911.812256 958.056274 C 1911.812256 948.775879 1908.166504 942.411987 1900.874756 938.964844 C 1893.583008 935.5177 1882.908691 933.794189 1868.855225 933.794189 L 1804.026001 933.794189 L 1804.026001 973.964844 Z M 332.817596 964.022644 L 413.158997 964.022644 C 434.636566 964.022644 450.744751 959.846252 461.483582 951.493774 C 472.222412 943.141235 477.591797 929.153442 477.591797 909.532104 C 477.591797 889.910645 471.428894 875.858459 459.099182 867.373413 C 446.76947 858.888428 429.996368 854.644958 408.783997 854.644958 L 332.817596 854.644958 L 332.817596 964.022644 Z M 752.822998 939.760559 L 821.630798 939.760559 L 788.618652 856.635559 L 752.822998 939.760559 Z M 1419.023315 939.760559 L 1487.831055 939.760559 L 1454.81897 856.635559 L 1419.023315 939.760559 Z M 2206.927979 939.760559 L 2275.735596 939.760559 L 2242.723633 856.635559 L 2206.927979 939.760559 Z M 1804.026001 881.690674 L 1850.95874 881.690674 C 1857.587646 881.690674 1863.686035 881.492249 1869.254517 881.094604 C 1874.822632 880.696716 1879.661255 879.900635 1883.77124 878.707458 C 1887.881104 877.514282 1891.063232 875.726318 1893.317017 873.339844 C 1895.570679 870.95343 1896.696655 867.771484 1896.696655 863.794189 C 1896.696655 859.816833 1895.570679 856.436462 1893.317017 853.652344 C 1891.063232 850.868286 1888.079468 848.613831 1884.36731 846.890259 C 1880.655273 845.166687 1876.411743 843.973816 1871.638916 843.310913 C 1866.866211 842.648071 1861.829224 842.315674 1856.526001 842.315674 L 1804.026001 842.315674 L 1804.026001 881.690674 Z M 927.426453 489.971741 C 898.259338 489.971741 870.286499 487.650391 843.505798 483.01001 C 816.725098 478.369812 793.06012 470.745972 772.510498 460.139709 C 751.960876 449.533508 735.520386 435.813721 723.190613 418.97644 C 710.86084 402.138916 704.697998 381.521912 704.697998 357.127625 C 704.697998 332.733337 710.796448 312.05188 722.993652 295.081909 C 735.190796 278.111938 751.497437 264.389526 771.914368 253.915894 C 792.331299 243.442139 815.929382 235.821167 842.710083 231.04834 C 869.490784 226.275635 897.332336 223.886963 926.234253 223.886963 C 955.666565 223.886963 983.770813 226.208374 1010.551453 230.848755 C 1037.332153 235.488892 1060.865845 243.112793 1081.150269 253.718994 C 1101.43457 264.325317 1117.542969 278.111938 1129.474854 295.081909 C 1141.40686 312.05188 1147.371338 332.733337 1147.371338 357.127625 C 1147.371338 381.521912 1141.40686 402.203308 1129.474854 419.17334 C 1117.542969 436.143311 1101.499146 449.865723 1081.347168 460.339294 C 1061.195435 470.813049 1037.79834 478.369812 1011.150269 483.01001 C 984.502075 487.650391 956.593567 489.971741 927.426453 489.971741 Z M 205.146881 485.993225 L 205.146881 227.865479 L 326.454681 227.865479 L 440.603882 347.581909 L 555.945313 227.865479 L 678.048767 227.865479 L 678.048767 485.993225 L 549.978882 485.993225 L 549.978882 372.639709 L 439.408997 472.07251 L 332.817596 372.639709 L 332.817596 485.993225 L 205.146881 485.993225 Z M 1301.691284 485.993225 L 1156.52063 227.865479 L 1296.52063 227.865479 L 1385.215454 392.127625 L 1389.986938 392.127625 L 1479.477539 227.865479 L 1617.888916 227.865479 L 1468.739624 485.993225 L 1301.691284 485.993225 Z M 1644.5354 485.993225 L 1644.5354 227.865479 L 1772.206055 227.865479 L 1772.206055 485.993225 L 1644.5354 485.993225 Z M 1809.99231 485.993225 L 1809.99231 227.865479 L 2117.437256 227.865479 L 2117.437256 297.069824 L 1937.663086 297.069824 L 1937.663086 328.093994 L 2104.312256 328.093994 L 2104.312256 385.764709 L 1937.663086 385.764709 L 1937.663086 416.78894 L 2117.040771 416.78894 L 2117.040771 485.993225 L 1809.99231 485.993225 Z M 927.027283 410.026794 C 940.550293 410.026794 952.948364 409.230591 964.217468 407.639709 C 975.486572 406.048645 985.230835 403.199158 993.450684 399.089294 C 1001.670471 394.979309 1008.098633 389.476013 1012.738953 382.581909 C 1017.37915 375.687805 1019.700684 367.072205 1019.700684 356.73114 C 1019.700684 346.390076 1017.37915 337.771545 1012.738953 330.877625 C 1008.098633 323.983521 1001.603577 318.547302 993.251099 314.569824 C 984.898743 310.592529 975.020264 307.742798 963.618652 306.019409 C 952.216919 304.295837 939.757141 303.435425 926.234253 303.435425 C 912.97644 303.435425 900.578369 304.295837 889.044067 306.019409 C 877.509827 307.742798 867.567261 310.592529 859.214783 314.569824 C 850.862488 318.547302 844.30011 323.983521 839.527283 330.877625 C 834.754578 337.771545 832.368652 346.390076 832.368652 356.73114 C 832.368652 367.072205 834.821533 375.687805 839.726868 382.581909 C 844.632263 389.476013 851.32605 394.979309 859.810852 399.089294 C 868.295898 403.199158 878.305481 406.048645 889.839783 407.639709 C 901.374084 409.230591 913.769592 410.026794 927.027283 410.026794 Z"/>
    </g>
</svg>
